<?xml version="1.0" encoding="UTF-8"?>
<!-- NEON FIBER — Concept 1: lockup, wordmark as VECTOR PATHS (renders without Orbitron). -->
<svg xmlns="http://www.w3.org/2000/svg" width="480" height="120" viewBox="0 0 480 120" role="img" aria-label="NEON FIBER">
  <defs>
    <linearGradient id="grad" x1="0" y1="0" x2="1" y2="1"><stop offset="0" stop-color="#22D3EE"/><stop offset="0.55" stop-color="#3B82F6"/><stop offset="1" stop-color="#A78BFA"/></linearGradient>
    <radialGradient id="core" cx="50%" cy="50%" r="50%"><stop offset="0" stop-color="#EAFBFF"/><stop offset="0.35" stop-color="#22D3EE"/><stop offset="1" stop-color="#3B82F6"/></radialGradient>
    <radialGradient id="halo" cx="50%" cy="46%" r="55%"><stop offset="0" stop-color="#22D3EE" stop-opacity="0.5"/><stop offset="0.5" stop-color="#3B82F6" stop-opacity="0.15"/><stop offset="1" stop-color="#3B82F6" stop-opacity="0"/></radialGradient>
    <linearGradient id="word" x1="0" y1="0" x2="1" y2="0"><stop offset="0" stop-color="#E5E7EB"/><stop offset="0.6" stop-color="#22D3EE"/><stop offset="1" stop-color="#A78BFA"/></linearGradient>
    <filter id="glow" x="-50%" y="-50%" width="200%" height="200%"><feGaussianBlur in="SourceGraphic" stdDeviation="2.0" result="b"/><feMerge><feMergeNode in="b"/><feMergeNode in="SourceGraphic"/></feMerge></filter>
    <filter id="textglow" x="-15%" y="-40%" width="130%" height="180%"><feGaussianBlur in="SourceGraphic" stdDeviation="1.2" result="b"/><feMerge><feMergeNode in="b"/><feMergeNode in="SourceGraphic"/></feMerge></filter>
  </defs>
  <g transform="translate(8,12) scale(0.75)">
    <circle cx="64" cy="58" r="56" fill="url(#halo)"/>
    <g filter="url(#glow)">
      <path d="M64 14 C42 14 26 30 26 52 C26 78 64 112 64 112 C64 112 102 78 102 52 C102 30 86 14 64 14 Z" fill="none" stroke="url(#grad)" stroke-width="6" stroke-linejoin="round"/>
      <g fill="none" stroke="url(#grad)" stroke-width="3.4" stroke-linecap="round">
        <path d="M64 16 C58 30 58 40 64 50"/>
        <path d="M30 50 C44 50 54 50 64 52" opacity="0.9"/>
        <path d="M98 50 C84 50 74 50 64 52" opacity="0.9"/>
        <path d="M40 28 C50 38 56 44 63 50" opacity="0.8"/>
        <path d="M88 28 C78 38 72 44 65 50" opacity="0.8"/>
      </g>
    </g>
    <circle cx="64" cy="52" r="13" fill="url(#core)" filter="url(#glow)"/>
    <circle cx="64" cy="52" r="5.4" fill="#F2FEFF"/>
    <g fill="#EAFBFF"><circle cx="64" cy="30" r="2.1"/><circle cx="42" cy="50" r="1.9" opacity="0.9"/><circle cx="86" cy="50" r="1.9" opacity="0.9"/></g>
  </g>
  <g transform="translate(112,22) scale(0.66)" fill="url(#word)" filter="url(#textglow)">
    <path d="M0.00 0.00 h8.00 v44.00 h-8.00 Z M22.00 0.00 h8.00 v44.00 h-8.00 Z M8.00 0.00 L15.60 0.00 L22.00 44.00 L14.40 44.00 Z M39.00 0.00 h8.00 v44.00 h-8.00 Z M39.00 0.00 h30.00 v8.00 h-30.00 Z M39.00 18.00 h24.60 v8.00 h-24.60 Z M39.00 36.00 h30.00 v8.00 h-30.00 Z M78.00 0.00 h30.00 v8.00 h-30.00 Z M78.00 36.00 h30.00 v8.00 h-30.00 Z M78.00 0.00 h8.00 v44.00 h-8.00 Z M100.00 0.00 h8.00 v44.00 h-8.00 Z M117.00 0.00 h8.00 v44.00 h-8.00 Z M139.00 0.00 h8.00 v44.00 h-8.00 Z M125.00 0.00 L132.60 0.00 L139.00 44.00 L131.40 44.00 Z"/>
  </g>
  <g transform="translate(112,64) scale(0.66)" fill="#94A3B8" filter="url(#textglow)">
    <path d="M0.00 0.00 h8.00 v44.00 h-8.00 Z M0.00 0.00 h30.00 v8.00 h-30.00 Z M0.00 18.00 h24.60 v8.00 h-24.60 Z M41.30 0.00 h8.00 v44.00 h-8.00 Z M60.60 0.00 h8.00 v44.00 h-8.00 Z M60.60 0.00 h25.80 v8.00 h-25.80 Z M60.60 18.00 h25.80 v8.00 h-25.80 Z M60.60 36.00 h25.80 v8.00 h-25.80 Z M78.40 0.00 h8.00 v26.00 h-8.00 Z M78.40 18.00 h8.00 v26.00 h-8.00 Z M99.60 0.00 h8.00 v44.00 h-8.00 Z M99.60 0.00 h30.00 v8.00 h-30.00 Z M99.60 18.00 h24.60 v8.00 h-24.60 Z M99.60 36.00 h30.00 v8.00 h-30.00 Z M138.60 0.00 h8.00 v44.00 h-8.00 Z M138.60 0.00 h25.80 v8.00 h-25.80 Z M138.60 18.00 h25.80 v8.00 h-25.80 Z M156.40 0.00 h8.00 v26.00 h-8.00 Z M151.20 18.00 L158.80 18.00 L166.20 44.00 L158.60 44.00 Z"/>
  </g>
</svg>
